<svg width="40" height="40" viewBox="0 0 40 40" fill="none" xmlns="http://www.w3.org/2000/svg">
<path d="M39.2838 22.916C39.2838 22.2907 39.1311 21.616 38.7818 20.9347C38.8671 20.6513 38.9284 20.3653 38.9751 20.0787C39.1284 19.9873 39.2784 19.8753 39.4124 19.7267C40.3058 18.7313 39.9858 16.7947 39.7158 15.7287C39.6884 15.6193 39.6438 15.52 39.5904 15.4253C39.6724 15.124 39.7158 14.8093 39.7158 14.4807C39.7164 6.49533 30.8724 0 20.0005 0C9.12845 0 0.284451 6.49533 0.284451 14.4807C0.284451 14.8087 0.328451 15.124 0.409784 15.4253C0.357118 15.5193 0.312451 15.618 0.285118 15.7267C0.0151178 16.792 -0.304882 18.7253 0.584451 19.7193C0.672451 20.252 0.820451 20.7873 1.04578 21.3173C0.821784 21.8667 0.718451 22.408 0.718451 22.9153C0.718451 23.4247 0.766451 23.9187 0.853784 24.4013C0.518451 25.1967 0.340451 26.0313 0.340451 26.888C0.341118 32.87 3.75179 40 20.0005 40C36.2491 40 39.6598 32.87 39.6598 26.8887C39.6598 26.0327 39.4824 25.1993 39.1471 24.4027C39.2351 23.92 39.2838 23.4253 39.2838 22.916ZM38.3831 14.4807C38.3831 17.8467 30.9958 20.108 20.0005 20.108C9.00512 20.108 1.61778 17.846 1.61778 14.4807C1.61778 7.20733 9.86445 1.29067 20.0005 1.29067C30.1364 1.29067 38.3831 7.20733 38.3831 14.4807ZM20.0005 38.7093C7.83978 38.7093 1.67378 34.7327 1.67378 26.8887C1.67378 26.8167 1.67512 26.744 1.67845 26.672C4.15578 31.63 10.3051 34.14 20.0011 34.14C29.6964 34.14 35.8444 31.6307 38.3224 26.674C38.3251 26.7453 38.3264 26.8173 38.3264 26.8887C38.3264 34.7333 32.1611 38.7093 20.0005 38.7093ZM38.3011 22.5373L38.2938 22.5233L38.2611 22.644C36.6584 26.6053 31.6258 29.3473 21.8091 29.644L18.5651 32.8247C18.4691 32.8227 18.3685 32.8227 18.2731 32.82L14.7018 29.414C7.18378 28.634 3.15912 26.12 1.74778 22.6733L1.70712 22.524L1.69512 22.5493C1.68045 22.5113 1.66178 22.4753 1.64778 22.4373C2.70512 24.0933 4.53512 25.6507 7.40378 26.872C9.65445 27.8307 11.6505 28.204 13.3818 28.1547L10.6165 25.5173C9.80512 25.3107 8.95578 25.0273 8.06312 24.6467C6.98045 24.186 6.05378 23.674 5.25045 23.1307C5.46778 23.208 5.69512 23.2607 5.94378 23.2607C6.47445 23.2607 6.98778 23.08 7.44045 22.92C7.57778 22.872 7.77378 22.8027 7.92978 22.7587C7.99912 22.8807 8.07645 23.0313 8.13512 23.1473C8.46712 23.798 8.92045 24.6873 9.87445 24.962C10.0471 25.0107 10.2278 25.036 10.4125 25.036C11.1078 25.036 11.7071 24.6887 12.2358 24.3827C12.3611 24.3093 12.5278 24.2133 12.6645 24.1447C12.7531 24.2533 12.8531 24.39 12.9298 24.4947C13.3571 25.0747 13.9425 25.8693 14.9085 25.9953C14.9918 26.0067 15.0738 26.0113 15.1565 26.0113C15.9818 26.0113 16.6345 25.4947 17.1591 25.0787C17.2698 24.9907 17.4145 24.8753 17.5365 24.7887C17.6398 24.886 17.7591 25.0087 17.8511 25.1033C18.3778 25.6453 19.0338 26.3213 20.0011 26.3213C20.9685 26.3213 21.6238 25.646 22.1511 25.1033C22.2431 25.0087 22.3618 24.886 22.4658 24.7887C22.5884 24.8753 22.7324 24.9907 22.8431 25.078C23.3671 25.494 24.0205 26.0113 24.8458 26.0113C24.9278 26.0113 25.0111 26.006 25.0924 25.996C25.3264 25.9653 25.5358 25.896 25.7264 25.802L24.1491 27.3493C25.8638 27.7487 27.9445 27.7667 30.4198 27.226C35.3244 26.1553 37.8244 23.762 38.7031 21.1647C38.6151 21.6373 38.4738 22.0933 38.3011 22.5373ZM2.42712 20.4093C2.45712 20.4093 2.49045 20.41 2.51645 20.41C2.66978 20.41 2.82978 20.404 2.99112 20.3993C3.12445 20.394 3.25845 20.3887 3.38978 20.3887C3.45712 20.3887 3.51178 20.3907 3.55645 20.3927C3.59645 20.5267 3.63778 20.698 3.66912 20.8287C3.78912 21.324 3.94512 21.9413 4.31645 22.4387C3.53178 21.794 2.90445 21.1127 2.42712 20.4093ZM26.1624 25.5167C26.5331 25.218 26.8211 24.834 27.0724 24.4933C27.1504 24.3887 27.2511 24.252 27.3391 24.1433C27.4751 24.2127 27.6404 24.308 27.7664 24.3813C28.2944 24.688 28.8924 25.0347 29.5884 25.0347C29.7724 25.0347 29.9538 25.0093 30.1264 24.9607C31.0804 24.686 31.5344 23.796 31.8658 23.1453C31.9251 23.0293 32.0018 22.8793 32.0711 22.758C32.2271 22.8013 32.4238 22.8713 32.5604 22.9193C33.0138 23.0787 33.5264 23.26 34.0578 23.26C34.2051 23.26 34.3444 23.2393 34.4818 23.212C33.2258 24.018 31.6244 24.6807 29.6138 25.1193C28.3584 25.394 27.2178 25.508 26.1624 25.5167ZM35.8884 22.12C36.1171 21.694 36.2351 21.2247 36.3304 20.8313C36.3618 20.7013 36.4031 20.5293 36.4424 20.396C36.4864 20.3933 36.5404 20.392 36.6058 20.392C36.7378 20.392 36.8731 20.3973 37.0078 20.4013C37.0965 20.4047 37.1818 20.4053 37.2691 20.408C36.9138 21.0067 36.4585 21.5827 35.8884 22.12ZM38.4504 18.8647C38.2578 19.0787 37.8971 19.1227 37.4871 19.1227C37.2044 19.1227 36.8971 19.102 36.6071 19.102C36.2131 19.102 35.8471 19.14 35.6044 19.3173C34.9878 19.7687 35.1424 21.5047 34.3965 21.8967C34.2971 21.948 34.1838 21.97 34.0584 21.97C33.4311 21.97 32.5284 21.4253 31.8638 21.4247C31.7484 21.4247 31.6411 21.4407 31.5431 21.4793C30.8191 21.7633 30.5651 23.492 29.7684 23.7207C29.7111 23.7373 29.6511 23.7447 29.5891 23.7447C28.8878 23.7447 27.9258 22.77 27.1924 22.77C27.1424 22.77 27.0938 22.7747 27.0451 22.784C26.2745 22.94 25.7404 24.6073 24.9251 24.7147C24.8991 24.7173 24.8718 24.7193 24.8458 24.7193C24.0905 24.7193 23.1911 23.3967 22.4098 23.3967C22.3958 23.3967 22.3811 23.3973 22.3678 23.398C21.5758 23.448 20.8198 25.0293 20.0018 25.0293C19.1831 25.0293 18.4285 23.448 17.6364 23.398C17.6224 23.3973 17.6078 23.3967 17.5938 23.3967C16.8125 23.3967 15.9125 24.7193 15.1578 24.7193C15.1311 24.7193 15.1045 24.718 15.0785 24.7147C14.2631 24.6073 13.7311 22.94 12.9585 22.784C12.9111 22.774 12.8618 22.77 12.8111 22.77C12.0778 22.77 11.1151 23.7447 10.4131 23.7447C10.3511 23.7447 10.2911 23.7373 10.2338 23.7207C9.43645 23.4913 9.18245 21.762 8.45778 21.4793C8.35978 21.4407 8.25178 21.4247 8.13712 21.4247C7.47312 21.4247 6.57178 21.9693 5.94445 21.9693C5.81912 21.9693 5.70445 21.9473 5.60445 21.8953C4.85912 21.502 5.01178 19.766 4.39712 19.316C4.15245 19.1367 3.78512 19.0993 3.39045 19.0993C3.10112 19.0993 2.79712 19.12 2.51645 19.12C2.10445 19.12 1.74245 19.0767 1.54978 18.8607C1.24578 18.522 1.26645 17.7347 1.35045 17.078C4.19845 20.214 12.3111 21.398 20.0011 21.398C27.6918 21.398 35.8038 20.214 38.6511 17.078C38.7351 17.736 38.7551 18.5247 38.4504 18.8647Z" fill="#2E2E3A"/>
<path d="M8.65181 9.04665L7.64247 8.07865L6.63314 9.04665L7.64247 10.014L8.65181 9.04665Z" fill="#2E2E3A"/>
<path d="M12.6185 8.42399L13.6271 7.45599L12.6185 6.488L11.6091 7.45599L12.6185 8.42399Z" fill="#2E2E3A"/>
<path d="M16.4511 11.8753L15.4424 10.9073L14.4331 11.8753L15.4424 12.8427L16.4511 11.8753Z" fill="#2E2E3A"/>
<path d="M19.9398 8.402L19.2678 7.75667L18.5944 8.402L19.2678 9.04667L19.9398 8.402Z" fill="#2E2E3A"/>
<path d="M31.0985 10.9073L31.7718 11.552L32.4451 10.9073L31.7718 10.2627L31.0985 10.9073Z" fill="#2E2E3A"/>
<path d="M36.5304 11.552L35.8578 10.9073L35.1844 11.552L35.8578 12.1973L36.5304 11.552Z" fill="#2E2E3A"/>
<path d="M28.7578 6.81065L28.0858 6.16532L27.4124 6.81065L28.0858 7.45599L28.7578 6.81065Z" fill="#2E2E3A"/>
<path d="M8.4058 6.00467L7.7338 5.35933L7.06047 6.00467L7.7338 6.65L8.4058 6.00467Z" fill="#2E2E3A"/>
<path d="M4.81644 9.04669L4.14377 8.40202L3.47111 9.04669L4.14377 9.69202L4.81644 9.04669Z" fill="#2E2E3A"/>
<path d="M7.64246 13.3067L8.31579 13.952L8.98779 13.3067L8.31579 12.6613L7.64246 13.3067Z" fill="#2E2E3A"/>
<path d="M16.7871 3.42402L16.1151 2.77868L15.4425 3.42402L16.1151 4.06935L16.7871 3.42402Z" fill="#2E2E3A"/>
<path d="M23.1378 2.77867L22.4658 2.13334L21.7924 2.77867L22.4658 3.42401L23.1378 2.77867Z" fill="#2E2E3A"/>
<path d="M12.6178 4.06932L11.9458 3.42399L11.2731 4.06932L11.9458 4.71399L12.6178 4.06932Z" fill="#2E2E3A"/>
<path d="M31.7278 5.60068L31.0558 4.95602L30.3824 5.60068L31.0558 6.24602L31.7278 5.60068Z" fill="#2E2E3A"/>
<path d="M23.4751 14.6753L24.4838 13.7073L23.4751 12.7393L22.4651 13.7073L23.4751 14.6753Z" fill="#2E2E3A"/>
<path d="M22.9031 8.74602L21.8945 7.77869L20.8851 8.74602L21.8945 9.71402L22.9031 8.74602Z" fill="#2E2E3A"/>
<path d="M26.6211 5.03667L25.6125 4.06934L24.6025 5.03667L25.6125 6.00467L26.6211 5.03667Z" fill="#2E2E3A"/>
<path d="M27.5118 9.17735L28.5205 10.1454L29.5298 9.17735L28.5205 8.20935L27.5118 9.17735Z" fill="#2E2E3A"/>
<path d="M33.7904 7.77867L32.7811 6.81067L31.7718 7.77867L32.7811 8.746L33.7904 7.77867Z" fill="#2E2E3A"/>
<path d="M29.5298 14.4133L30.5391 13.446L29.5298 12.478L28.5205 13.446L29.5298 14.4133Z" fill="#2E2E3A"/>
<path d="M4.14311 11.7713L5.15311 12.7393L6.16178 11.7713L5.15311 10.804L4.14311 11.7713Z" fill="#2E2E3A"/>
</svg>
